<svg id="Capa_1" enable-background="new 0 0 512 512" height="512" viewBox="0 0 512 512" width="512" xmlns="http://www.w3.org/2000/svg"><g><g><path d="m288.036 403.184c5.313 4.259 11.007 8.207 17.068 11.792 26.989 15.961 56.781 22.069 84.736 19.459 5.521-.516 8.869-6.296 6.658-11.381-10.179-23.411-27.406-44.678-50.745-60.333l-51.008 6.625z" fill="#ccf49f"/><path d="m224.038 403.184c-5.313 4.259-11.007 8.207-17.068 11.792-26.989 15.961-56.781 22.069-84.736 19.459-5.521-.516-8.869-6.296-6.658-11.381 10.179-23.411 27.406-44.678 50.745-60.333l51.008 6.625z" fill="#95d6a4"/><path d="m45.756 149.084c-5.292-.962-9.993 3.262-9.6 8.626 2.922 39.884 19.082 80.066 48.842 113.185 32.292 35.936 74.557 56.836 117.397 62.159-.73-43.163-17.009-87.414-49.301-123.35-29.76-33.118-67.992-53.466-107.338-60.62z" fill="#ff8086"/><path d="m17.531 237.108c-5.326.752-8.458 6.241-6.397 11.209 15.325 36.938 43.31 69.993 81.981 92.063 41.961 23.947 88.656 30.484 130.994 22.055-14.277-40.74-43.655-77.62-85.615-101.567-38.671-22.07-81.365-29.352-120.963-23.76z" fill="#ff9a9f"/><path d="m199.755 347.855c-31.592 0-63.108-8.457-91.142-24.456-35.128-20.048-62.703-51.113-78.017-87.589-4.38.301-8.747.69-13.063 1.299-5.326.752-8.458 6.241-6.398 11.209 15.325 36.938 43.31 69.992 81.981 92.063 41.96 23.947 88.655 30.484 130.994 22.055-1.842-5.257-3.957-10.442-6.298-15.551-5.977.611-12.032.97-18.057.97z" fill="#ff8086"/><g fill="#ffb9b9"><path d="m465.759 149.084c5.292-.962 9.993 3.262 9.6 8.626-2.922 39.884-19.082 80.066-48.842 113.185-32.292 35.936-74.557 56.836-117.397 62.159.73-43.163 17.009-87.414 49.301-123.35 29.76-33.118 67.993-53.466 107.338-60.62z"/><path d="m493.984 237.108c5.326.752 8.458 6.241 6.397 11.209-15.325 36.938-43.31 69.993-81.981 92.063-41.961 23.947-88.656 30.484-130.994 22.055 14.277-40.74 43.655-77.62 85.615-101.567 38.672-22.07 81.365-29.352 120.963-23.76z"/><path d="m251.082 47.716c-41.71 32.173-67.227 74.498-67.227 121.01l72.015 99.75 72.275-99.75c0-46.512-25.517-88.837-67.227-121.01-2.864-2.209-6.971-2.209-9.836 0z"/></g><path d="m272.749 57.57c-3.797-3.371-7.71-6.676-11.83-9.854-2.865-2.21-6.971-2.21-9.836 0-41.711 32.174-67.227 74.498-67.227 121.011l5.675 7.861 8.575-.239 7.504-.209.283-7.502c1.544-40.923 24.761-79.979 65.373-109.972z" fill="#ff9a9f"/><path d="m238.658 186.256v-.001c-23.272-46.006-63.332-77.607-109.791-92.636-4.326-1.399-9.04 1.231-10.121 5.647-9.877 40.367-7.105 83.092 10.541 122.024l78.616 47.187z" fill="#ff9a9f"/><path d="m129.287 221.289 18.069 10.845 11.861 1.797-6.095-13.446c-17.019-37.547-20.046-79.401-8.826-121.086-5.061-2.113-10.189-4.087-15.428-5.782-4.326-1.399-9.041 1.231-10.121 5.648-9.879 40.367-7.107 83.093 10.54 122.024z" fill="#ff8086"/><path d="m274.72 186.256v-.001c23.272-46.006 63.332-77.607 109.791-92.636 4.326-1.399 9.04 1.231 10.121 5.647 9.877 40.367 7.105 83.092-10.541 122.024l-78.616 47.187z" fill="#ff9a9f"/><path d="m293.571 236.654 11.904 31.822 78.615-47.187c4.689-10.343 8.254-20.963 10.884-31.725l-3.687.599c-37.208 6.045-70.88 22.146-97.716 46.491z" fill="#ff8086"/><path d="m251.082 167.055c-41.71 32.173-67.227 74.498-67.227 121.01l72.015 99.75 72.275-99.75c0-46.512-25.517-88.837-67.227-121.01-2.864-2.21-6.971-2.21-9.836 0z" fill="#ff8086"/><path d="m273.606 177.665c-4.053-3.639-8.258-7.194-12.688-10.61-2.865-2.21-6.971-2.21-9.836 0-41.711 32.174-67.227 74.498-67.227 121.011l7.66 10.611 3.345.984 10.045 2.957.233-10.468c.936-42.113 24.731-82.389 67.003-113.408z" fill="#e5646e"/><path d="m215.92 382.706c0 30.802 13.019 58.946 34.499 80.806 3.027 3.08 8.137 3.08 11.164 0 21.479-21.86 34.499-50.004 34.499-80.807z" fill="#b3e59f"/><path d="m424.368 211.331c4.363-.016 8.002 3.623 7.986 7.986-.166 45.015-15.937 88.113-48.226 120.401-34.163 34.163-80.426 49.835-128.258 48.097-1.739-47.832 13.934-94.095 48.097-128.258 32.288-32.289 75.386-48.06 120.401-48.226z" fill="#ff9a9f"/><path d="m87.372 211.331c-4.363-.016-8.002 3.623-7.986 7.986.166 45.015 15.937 88.113 48.226 120.401 34.163 34.163 80.426 49.835 128.258 48.097 1.739-47.832-13.934-94.095-48.097-128.258-32.288-32.289-75.385-48.06-120.401-48.226z" fill="#e5646e"/></g><path d="m511.075 236.055c-1.044-1.903-2.862-3.261-4.984-3.721-13.876-3.013-27.969-4.451-42.147-4.328 12.159-25.233 18.832-52.774 19.372-80.313.042-2.17-.857-4.253-2.468-5.709-1.61-1.457-3.774-2.142-5.927-1.884-23.375 2.814-46.557 10.188-67.717 21.451 1.799-23.849-1.161-48.526-8.959-72.641-1.209-3.741-5.101-5.911-8.92-4.978-23.919 5.856-46.048 15.899-65.107 29.43-12.244-28.395-34.152-54.643-63.794-76.298-2.636-1.925-6.213-1.925-8.849 0-29.627 21.645-51.547 47.898-63.789 76.284-18.936-13.475-40.91-23.49-65.113-29.416-3.819-.934-7.71 1.237-8.919 4.978-7.798 24.115-10.758 48.792-8.959 72.641-21.159-11.263-44.341-18.637-67.717-21.451-2.153-.258-4.317.427-5.927 1.884-1.61 1.456-2.51 3.539-2.468 5.709.54 27.539 7.213 55.08 19.372 80.313-14.178-.123-28.271 1.315-42.147 4.328-2.122.46-3.939 1.818-4.984 3.721s-1.213 4.166-.462 6.203c16.208 43.954 48.422 80.939 90.71 104.143 17.587 9.65 36.269 16.591 55.589 20.661-20.044 16.455-34.868 38.75-42.248 63.848-.586 1.995-.319 4.144.74 5.934s2.812 3.06 4.843 3.507c9.322 2.052 18.74 3.066 28.105 3.066 23.067 0 45.815-6.154 66.029-18.107 3.12-1.845 6.162-3.834 9.119-5.931 6.524 20.516 19.387 39.481 37.777 55.202 1.403 1.199 3.138 1.799 4.874 1.799s3.47-.6 4.874-1.799c18.403-15.732 31.271-34.714 37.791-55.246 2.976 2.112 6.038 4.116 9.179 5.974 20.215 11.955 42.959 18.108 66.029 18.107 9.363 0 18.784-1.015 28.104-3.066 2.03-.447 3.784-1.717 4.843-3.507s1.326-3.938.74-5.934c-7.381-25.104-22.211-47.404-42.262-63.861 19.299-4.071 37.961-11.007 55.531-20.648 42.288-23.204 74.502-60.189 90.71-104.143.749-2.036.581-4.299-.464-6.202zm-106.276-55.873c19.396-11.882 41.049-20.064 63.116-23.896-1.794 25.131-9.087 50.034-21.284 72.641-2.319.228-4.638.508-6.958.82.339-6.112.405-12.303.177-18.559-.143-3.928-3.294-7.08-7.223-7.223-11.811-.428-23.388.173-34.636 1.744 2.929-8.295 5.201-16.827 6.808-25.527zm-148.799-127.69c26.469 20.345 45.705 44.561 55.953 70.447-2.12 1.811-4.208 3.652-6.228 5.558-3.013 2.842-3.151 7.589-.308 10.602s7.59 3.151 10.602.308c19.068-17.991 43.154-31.419 70.01-39.086 10.484 37.225 8.62 75.425-5.358 108.634-20.433 4.855-39.496 13.109-56.52 24.493-8.417-19.458-21.374-37.904-38.25-54.552.49-.923.988-1.842 1.494-2.749 2.425-4.345 5.087-8.614 7.913-12.687 2.361-3.403 1.517-8.076-1.887-10.438s-8.077-1.516-10.438 1.887c-3.018 4.35-5.861 8.904-8.464 13.539-4.481-3.832-9.181-7.551-14.096-11.142-2.636-1.925-6.213-1.925-8.849 0-4.915 3.59-9.615 7.309-14.097 11.141-9.749-17.361-22.393-32.655-37.407-45.508 10.248-25.879 29.47-50.107 55.93-70.447zm-130.028 47.828c43.26 12.322 78.11 39.051 98.632 75.827.506.908 1.005 1.828 1.495 2.751-16.874 16.648-29.836 35.096-38.251 54.55-17.023-11.385-36.086-19.64-56.521-24.496-13.977-33.21-15.841-71.407-5.355-108.632zm-81.886 55.966c22.067 3.832 43.72 12.014 63.116 23.896 1.607 8.699 3.879 17.23 6.806 25.524-11.247-1.57-22.823-2.171-34.635-1.742-3.928.143-7.08 3.294-7.223 7.223-.227 6.256-.161 12.447.177 18.559-2.32-.311-4.639-.592-6.958-.82-12.197-22.606-19.49-47.509-21.283-72.64zm54.303 176.964c-36.433-19.991-64.765-50.993-80.565-87.925 18.41-3.033 37.184-3.107 55.964-.225 5.164 38.039 21.53 72.3 47.603 98.843-7.851-3.027-15.532-6.594-23.002-10.693zm98.206 79.148c-22.729 13.441-49.083 18.593-75.039 14.808 7.952-21.196 22.042-39.671 40.384-52.891 14.443 7.737 30.068 13.437 46.542 16.949.136 4.088.515 8.146 1.128 12.165-4.111 3.259-8.471 6.281-13.015 8.969zm-63.549-77.983c-29.78-29.78-45.982-70.604-46.031-115.585 44.981.048 85.806 16.251 115.585 46.03 6.006 6.007 11.538 12.545 16.441 19.434 2.402 3.375 7.085 4.163 10.459 1.761 3.375-2.402 4.163-7.085 1.761-10.459-5.386-7.566-11.461-14.747-18.055-21.342-4.118-4.118-8.43-7.992-12.913-11.63 10.301-25.67 29.436-49.696 55.706-69.889 26.274 20.195 45.418 44.204 55.722 69.876-4.489 3.642-8.806 7.52-12.929 11.643-20.18 20.18-34.656 44.933-42.781 72.47-2.119-7.161-4.674-14.165-7.673-20.994-1.665-3.792-6.09-5.517-9.882-3.852-3.793 1.665-5.518 6.09-3.852 9.882 9.309 21.2 14.018 44.276 14.028 68.686-44.98-.049-85.807-16.251-115.586-46.031zm122.954 124.376c-19.43-18.435-30.731-41.128-32.366-64.956 8.234 1.061 16.637 1.611 25.179 1.611h14.373c8.542 0 16.946-.55 25.18-1.612-1.634 23.828-12.935 46.522-32.366 64.957zm134.517-31.586c-25.954 3.785-52.309-1.366-75.038-14.808-4.568-2.701-8.95-5.741-13.081-9.021.609-4.002.985-8.044 1.12-12.115 16.489-3.516 32.129-9.223 46.583-16.971 18.358 13.223 32.459 31.707 40.416 52.915zm-127.147-46.759c.048-44.981 16.25-85.806 46.03-115.586 29.782-29.781 70.601-45.984 115.585-46.03-.048 44.981-16.251 85.806-46.031 115.585-29.781 29.782-70.599 45.984-115.584 46.031zm150.241-47.196c-7.47 4.099-15.151 7.666-23.002 10.694 26.073-26.543 42.439-60.805 47.603-98.843 18.781-2.883 37.555-2.809 55.964.225-15.799 36.932-44.131 67.933-80.565 87.924z"/></g></svg>